<?xml version="1.0" encoding="UTF-8"?> <svg xmlns="http://www.w3.org/2000/svg" xmlns:xlink="http://www.w3.org/1999/xlink" id="Ebene_1" data-name="Ebene 1" width="1080" height="630" viewBox="0 0 1080 630"><defs><style>.cls-1{fill:#3bd0cc;}.cls-2{opacity:0.4;}.cls-3{fill:none;stroke:#00a6ff;stroke-linecap:round;stroke-linejoin:round;stroke-width:11.66px;}.cls-4,.cls-5,.cls-6,.cls-7,.cls-8{fill:aqua;}.cls-5{opacity:0.5;}.cls-26,.cls-6{opacity:0.2;}.cls-7{opacity:0.1;}.cls-8{opacity:0.03;}.cls-23,.cls-24,.cls-30,.cls-9{opacity:0.7;}.cls-9{fill:url(#linear-gradient);}.cls-10,.cls-19,.cls-20{opacity:0.6;}.cls-10{fill:url(#linear-gradient-2);}.cls-11{fill:#529dd1;}.cls-11,.cls-12,.cls-13,.cls-14,.cls-21{fill-rule:evenodd;}.cls-12,.cls-16{fill:#fff;}.cls-13{fill:#1b75bb;}.cls-14,.cls-15{fill:#a1b1d7;}.cls-17{fill:#9fbee0;}.cls-18{fill:#d5e0f0;}.cls-19{fill:url(#linear-gradient-3);}.cls-20{fill:url(#linear-gradient-4);}.cls-21,.cls-22{fill:#4661a5;}.cls-23{fill:url(#linear-gradient-5);}.cls-24{fill:url(#linear-gradient-6);}.cls-25{fill:url(#linear-gradient-7);}.cls-26{fill:url(#linear-gradient-8);}.cls-27{fill:#e78e00;}.cls-28{fill:#ffcc01;}.cls-29{fill:#230b01;}.cls-30{fill:#4f1787;}.cls-31{fill:#b7e1f5;}</style><linearGradient id="linear-gradient" x1="-466.9" y1="-13557.76" x2="-413.5" y2="-13508.5" gradientTransform="translate(-11601.41 -5585.36) rotate(118.27)" gradientUnits="userSpaceOnUse"><stop offset="0" stop-color="aqua"></stop><stop offset="0.36" stop-color="aqua" stop-opacity="0.6"></stop><stop offset="0.67" stop-color="aqua" stop-opacity="0.28"></stop><stop offset="0.89" stop-color="aqua" stop-opacity="0.08"></stop><stop offset="1" stop-color="aqua" stop-opacity="0"></stop></linearGradient><linearGradient id="linear-gradient-2" x1="-3317.58" y1="489.11" x2="-3271.76" y2="552.4" gradientTransform="matrix(-1, 0, 0, 1, -2884.85, 0)" gradientUnits="userSpaceOnUse"><stop offset="0" stop-color="#1b75bb"></stop><stop offset="1" stop-color="#3bd0cc"></stop></linearGradient><linearGradient id="linear-gradient-3" x1="-3476.95" y1="579.8" x2="-3449.51" y2="617.71" xlink:href="#linear-gradient-2"></linearGradient><linearGradient id="linear-gradient-4" x1="246.44" y1="381.46" x2="187.39" y2="457.73" gradientTransform="matrix(1, 0, 0, 1, 0, 0)" xlink:href="#linear-gradient-2"></linearGradient><linearGradient id="linear-gradient-5" x1="-5591.26" y1="-15612.33" x2="-5537.87" y2="-15563.07" gradientTransform="translate(-9252.19 -13027.61) rotate(163.45)" xlink:href="#linear-gradient"></linearGradient><linearGradient id="linear-gradient-6" x1="-619.94" y1="-13645.16" x2="-566.54" y2="-13595.9" xlink:href="#linear-gradient"></linearGradient><linearGradient id="linear-gradient-7" x1="6153.59" y1="218.78" x2="6523.38" y2="218.78" gradientTransform="translate(-5559.73)" gradientUnits="userSpaceOnUse"><stop offset="0" stop-color="#dbedff"></stop><stop offset="1" stop-color="#d8eafe"></stop></linearGradient><linearGradient id="linear-gradient-8" x1="6302.91" y1="36.01" x2="6191.74" y2="193.35" gradientTransform="translate(-5559.73)" gradientUnits="userSpaceOnUse"><stop offset="0" stop-color="#fff"></stop><stop offset="1" stop-color="#fff" stop-opacity="0"></stop></linearGradient></defs><title>SaaS security- How we keep subscriber data safe, and secure</title><rect class="cls-1" width="1080" height="630"></rect><g id="_07_Blockchain_Validation" data-name="07 Blockchain Validation"><g class="cls-2"><line class="cls-3" x1="493.73" y1="456.45" x2="740.22" y2="303.54"></line><path class="cls-3" d="M322.52,357.06,412,311.55a33.93,33.93,0,0,1,23.13-2.78l214.11,50.46,71,128.65A17,17,0,0,1,715,510.05l-32.81,22.5"></path></g><circle class="cls-4" cx="563.51" cy="413.88" r="5.87"></circle><circle class="cls-5" cx="544.43" cy="425.59" r="5.87"></circle><circle class="cls-6" cx="526.85" cy="436.38" r="5.87"></circle><circle class="cls-7" cx="509.29" cy="447.27" r="5.87"></circle><circle class="cls-8" cx="490.49" cy="458.84" r="5.87"></circle><polygon class="cls-9" points="566.51 418.91 493.04 464.18 486.64 454.17 560.33 408.94 566.51 418.91"></polygon><g id="ipad"><path class="cls-10" d="M487.43,514.48,413.28,473a3.29,3.29,0,0,0-3.27,0l-73.52,42.35a3.3,3.3,0,0,0,0,5.72L411.23,563a3.3,3.3,0,0,0,3.3,0l72.94-42.84A3.29,3.29,0,0,0,487.43,514.48Z"></path><g id="iPad-2" data-name="iPad"><g id="body"><path class="cls-11" d="M461.35,527.83,391.6,487.56c-3.34-1.93-4-8.27.1-10.63L488,426.46c3.85-2.22,9.69-2.46,13-.54l70.62,35.67c3.34,1.93,2.05,8.34-1.81,10.57l-95.49,55.13C470.52,529.52,464.69,529.76,461.35,527.83Z"></path><path class="cls-12" d="M461.35,524.15,391.6,483.88c-3.34-1.93-2.93-5.31.93-7.52L488,421.23c3.85-2.23,9.69-2.47,13-.54L570.79,461c3.34,1.92,2.93,5.29-.93,7.52l-95.49,55.13C470.52,525.83,464.69,526.07,461.35,524.15Z"></path><path class="cls-13" d="M566.25,467.42l-89.5,51.68a1.78,1.78,0,0,1-1.6.06l-1.72-1L408.8,480.85,402,476.93h0l-1.75-1c-.42-.24-.36-.66.11-.92l89.5-51.68a1.81,1.81,0,0,1,1.6-.07l74.92,43.25C566.78,466.73,566.72,467.15,566.25,467.42Z"></path><path class="cls-14" d="M537.29,446.33l-10.9-6.3c-.27-.15-.23-.42.07-.6h0a1.19,1.19,0,0,1,1,0l10.9,6.3c.27.15.23.42-.07.59h0A1.16,1.16,0,0,1,537.29,446.33Z"></path><ellipse class="cls-15" cx="432.38" cy="500.6" rx="2.57" ry="4.46" transform="translate(-70.56 930.26) rotate(-89.69)"></ellipse></g></g><path class="cls-16" d="M478,445.49c4.81,2.78,8.72,9.51,8.72,15,0,4.23-2.29,6.53-5.52,6.12v1.65a.33.33,0,0,1-.2.34l-.82.21c-.21,0-.26.37-.11.7l0,.05a.91.91,0,0,1,.09.37c0,.23-.13.37-.34.33s-.43.26-.27.65l1.24,3.14a1.36,1.36,0,0,1,0,1.42l-1.18,1.24a1.39,1.39,0,0,0-.05,1.41l1.33,3.39a1.4,1.4,0,0,1,0,1.32l-.43.55a1.48,1.48,0,0,0,0,1.49l.35.8a1.46,1.46,0,0,1,0,1.42l-.72.92a1.51,1.51,0,0,0,0,1.49l1,2.18a.91.91,0,0,1,.09.37v.35a.34.34,0,0,1-.12.29l-2.32,1.72c-.33.24-.86,0-1.28-.45a2.36,2.36,0,0,1-.32-.48l-.34-.64-.66-1.24-.66-1.26-.22-.42a4.48,4.48,0,0,1-.56-2V462.88c-3.19-3.33-5.45-8.22-5.45-12.42C469.24,444.93,473.15,442.71,478,445.49Zm0,8.32c1.32.77,2.39.16,2.39-1.36a5.3,5.3,0,0,0-2.39-4.14c-1.33-.76-2.4-.15-2.4,1.37A5.25,5.25,0,0,0,478,453.81Z"></path><polygon class="cls-17" points="475.47 464.02 475.47 490.38 476.13 491.64 476.79 492.88 476.79 464.78 475.47 464.02"></polygon><polygon class="cls-18" points="476.01 464.39 476.01 490.75 476.67 492 476.79 492.23 476.79 464.84 476.01 464.39"></polygon></g><g id="iPhone"><path class="cls-19" d="M624.86,595l-44.41-24.83a2,2,0,0,0-2,0l-44,25.37a2,2,0,0,0,0,3.43l44.76,25.11a2,2,0,0,0,2,0l43.69-25.65A2,2,0,0,0,624.86,595Z"></path><g id="body-2" data-name="body"><path class="cls-11" d="M577.91,579.57l33,19c3.82,2.21,9.61,2.45,12.93.53l80.56-47.55a3.93,3.93,0,0,0,2.23-3.08v-4h-2.46c-.22-.15-.45-.29-.7-.44l-33-19c-3.83-2.21-9.61-2.45-12.93-.53l-79.38,46.87h-3.41v3.69C574.63,576.65,575.71,578.29,577.91,579.57Z"></path><path class="cls-12" d="M577.91,575.71l33,19c3.82,2.21,9.61,2.45,12.93.54l80.56-47.56c3.31-1.91,2.9-5.25-.93-7.46l-33-19c-3.83-2.21-9.61-2.45-12.93-.54L577,568.25C573.67,570.16,574.08,573.5,577.91,575.71Z"></path><path class="cls-13" d="M588,565.77l70.33-41.65a5.11,5.11,0,0,1,4.59.19l35.18,20.31c1.36.79,1.5,2,.33,2.65L628.1,588.92a5.06,5.06,0,0,1-4.58-.19l-35.18-20.31C587,567.64,586.83,566.45,588,565.77Z"></path><path class="cls-14" d="M688.17,535.69h0a1.41,1.41,0,0,1-1.26-.05l-8.42-4.86c-.37-.22-.41-.54-.09-.73a1.41,1.41,0,0,1,1.26.05l8.42,4.86C688.45,535.18,688.49,535.5,688.17,535.69Z"></path><ellipse class="cls-15" cx="600.5" cy="581.71" rx="4.78" ry="2.76" transform="translate(-3.15 3.26) rotate(-0.31)"></ellipse></g><path class="cls-16" d="M640.93,540.83a11.67,11.67,0,0,1,5.31,9.16c0,2.58-1.39,4-3.36,3.73v1c0,.11,0,.19-.12.21l-.5.13c-.13,0-.16.22-.07.42l0,0a.68.68,0,0,1,0,.23c0,.14-.08.23-.2.2s-.26.16-.17.4l.76,1.91a.85.85,0,0,1,0,.86l-.72.76a.85.85,0,0,0,0,.86l.81,2.06a.9.9,0,0,1,0,.81l-.27.33a.91.91,0,0,0,0,.91l.22.48a.92.92,0,0,1,0,.87l-.44.56a.94.94,0,0,0,0,.91l.6,1.33a.47.47,0,0,1,0,.22v.21a.2.2,0,0,1-.07.18l-1.41,1c-.2.14-.52,0-.78-.28a1.64,1.64,0,0,1-.2-.29l-.2-.39-.4-.76-.41-.76-.13-.26a2.69,2.69,0,0,1-.34-1.23V551.42a11.76,11.76,0,0,1-3.32-7.56C635.62,540.49,638,539.13,640.93,540.83Zm0,5.07c.81.46,1.46.09,1.46-.83a3.19,3.19,0,0,0-1.46-2.52c-.8-.47-1.46-.09-1.46.83A3.24,3.24,0,0,0,640.93,545.9Z"></path><polygon class="cls-17" points="639.41 552.12 639.41 568.17 639.82 568.93 640.22 569.69 640.22 552.58 639.41 552.12"></polygon><polygon class="cls-18" points="639.74 552.34 639.74 568.39 640.14 569.16 640.22 569.29 640.22 552.61 639.74 552.34"></polygon></g><g id="MacBook_Pro" data-name="MacBook Pro"><path class="cls-20" d="M361.79,413.88h0l-.34.21-132.76,78a6,6,0,0,1-6,0S97.55,420.92,90.15,417.42s-6.29-10.46-1-13.5l63.49-36.58,3.22-1.86,64.59-37.21a6,6,0,0,1,4.88-.5,6.38,6.38,0,0,1,1.07.48l9.73,5.44,1.66.93,7.39,4.13,1.66.93,7.41,4.14,1.66.93,7.42,4.15,1.67.93,7.43,4.15,1.67.94,7.44,4.16,1.68.94,7.46,4.17,1.67.93,7.47,4.18,1.68.94,7.48,4.18,1.68.94,7.49,4.19,1.69.94,7.51,4.2,1.69.94,7.52,4.21,1.69,1,7.53,4.21,1.7.95,7.54,4.22,6.35,3.54a5.94,5.94,0,0,1,2.73,3.31A6,6,0,0,1,361.79,413.88Z"></path><g id="body-3" data-name="body"><path class="cls-21" d="M383,270.59,246.94,192c-1.92-1.11-3.59-.84-4.44.49h0a4.51,4.51,0,0,0-.59,2.39V304.7a10.84,10.84,0,0,0,2.17,6,9.6,9.6,0,0,0,2.87,2.69L383,392a5.86,5.86,0,0,0,1,.45,3,3,0,0,0,2.91-.29h0a3.71,3.71,0,0,0,1.18-3V279.29A11.09,11.09,0,0,0,383,270.59Z"></path><path class="cls-11" d="M154.3,358.42l82-41.86c2.38-1.38,6.57-1.19,9.36.42l131.86,76.13h6.53v5.31a2.66,2.66,0,0,1-1.58,2.53L300.65,448.2c-2.39,1.38-6.58,1.19-9.37-.42L155.21,369.22C152.42,367.61,151,360.08,154.3,358.42Z"></path><path class="cls-12" d="M382.43,271.23,246.36,192.67c-1.55-.89-2.94-.89-3.86-.16h0a3.76,3.76,0,0,0-1.17,3v109.8a11.16,11.16,0,0,0,5,8.71l136.07,78.56a5.55,5.55,0,0,0,1.11.49,3.79,3.79,0,0,0,.53.14h0a2.59,2.59,0,0,0,2.81-1.12h0a4.4,4.4,0,0,0,.59-2.39V279.94A11.11,11.11,0,0,0,382.43,271.23Z"></path><path class="cls-13" d="M382.88,384.09V277.8a2.25,2.25,0,0,0-1-1.75L246.93,198.14c-.56-.32-1-.06-1,.58V305a2.21,2.21,0,0,0,1,1.74l134.94,77.91C382.43,385,382.88,384.74,382.88,384.09Z"></path><path class="cls-12" d="M384,392.42a4.61,4.61,0,0,0-2.22-2.42L245.68,311.44a9.38,9.38,0,0,0-1.61-.72,12.41,12.41,0,0,0-1.23-.35,9.61,9.61,0,0,0-6.52.65l-81.84,47.25a3.5,3.5,0,0,0-.58.4c-1.72,1.41-1.23,3.54,1.31,5l1,.59,49.83,28.78,36.34,21,48.87,28.21c2.78,1.61,7,1.8,9.36.42l63.83-36.85,18-10.4a2.83,2.83,0,0,0,1.58-2.11s0,0,0-.05A2.39,2.39,0,0,0,384,392.42Z"></path><path class="cls-14" d="M209,385.27l44.86,25.9A4.58,4.58,0,0,0,258,411l20.61-11.9c1.22-.7,1.35-1.77.29-2.38l-44.86-25.9a4.61,4.61,0,0,0-4.13.17l-20.6,11.9C208.1,383.59,208,384.66,209,385.27Z"></path><path class="cls-22" d="M206.09,393a6,6,0,0,1,.84,0,6.28,6.28,0,0,1,2.51.78l31.63,18.26c1,.58,1.49,1.32,1.37,1.93a4.74,4.74,0,0,1-.84,0,6.28,6.28,0,0,1-2.51-.78L207.46,395C206.45,394.38,206,393.64,206.09,393Z"></path><path class="cls-14" d="M319.8,409.46l-6.49-3.76a1.53,1.53,0,0,0-1.38,0l-1.84,1.06c-.37.21-.37.56,0,.78l6.5,3.77a1.5,1.5,0,0,0,1.37,0l1.84-1.06C320.19,410,320.18,409.68,319.8,409.46Zm4.3-2.47-6.5-3.76a1.5,1.5,0,0,0-1.37,0l-1.71,1c-.37.22-.37.57,0,.79l6.49,3.76a1.47,1.47,0,0,0,1.37,0l1.71-1C324.49,407.57,324.49,407.22,324.1,407Zm-13.42-3-6.48-3.76a1.5,1.5,0,0,0-1.37,0l-2,1.13c-.38.21-.37.57,0,.79l6.48,3.75a1.5,1.5,0,0,0,1.38,0l2-1.13C311.07,404.59,311.06,404.24,310.68,404Zm11.09-8.59-6-3.48a1.54,1.54,0,0,0-1.37,0l-5.93,3.41a.42.42,0,0,0,0,.79l6,3.48a1.54,1.54,0,0,0,1.37,0l5.93-3.4C322.16,396,322.16,395.65,321.77,395.43Zm13.59-2.7-6-3.47a1.5,1.5,0,0,0-1.37,0L322,392.66c-.38.22-.37.57,0,.79l6,3.47a1.53,1.53,0,0,0,1.38,0l5.95-3.42C335.74,393.31,335.74,393,335.36,392.73Zm-9.07-5.23-6-3.47a1.5,1.5,0,0,0-1.37,0l-5.93,3.4a.42.42,0,0,0,0,.79l6,3.47a1.47,1.47,0,0,0,1.37,0l5.93-3.41A.42.42,0,0,0,326.29,387.5Zm-21.11,8.78-6.47-3.75a1.5,1.5,0,0,0-1.37,0l-5.92,3.39a.42.42,0,0,0,0,.79l6.47,3.76a1.54,1.54,0,0,0,1.37,0l5.92-3.4C305.57,396.86,305.56,396.5,305.18,396.28Zm7.55-6.08-6-3.47a1.51,1.51,0,0,0-1.36,0l-5.92,3.41c-.38.21-.37.57,0,.79l6,3.47a1.54,1.54,0,0,0,1.37,0l5.92-3.4C313.11,390.77,313.1,390.42,312.73,390.2Zm-9-5.22-6-3.46a1.51,1.51,0,0,0-1.36,0l-5.92,3.41c-.37.21-.37.56,0,.78l6,3.47a1.51,1.51,0,0,0,1.36,0l5.92-3.4C304.08,385.55,304.07,385.2,303.69,385Zm4.51-7.91-6-3.46a1.5,1.5,0,0,0-1.37,0L294.92,377c-.38.22-.38.57,0,.79l6,3.45a1.45,1.45,0,0,0,1.36,0l5.92-3.4C308.58,377.64,308.58,377.28,308.2,377.07Zm9,5.21-6-3.46a1.47,1.47,0,0,0-1.37,0l-5.92,3.41c-.38.21-.38.57,0,.79l6,3.46a1.54,1.54,0,0,0,1.37,0l5.93-3.41C317.62,382.85,317.61,382.5,317.23,382.28Zm-21.55,8.5-8.6-5a1.45,1.45,0,0,0-1.36,0l-5.9,3.4a.41.41,0,0,0,0,.78l8.59,5a1.54,1.54,0,0,0,1.37,0l5.91-3.4A.42.42,0,0,0,295.68,390.78Zm-1-11-6-3.46a1.51,1.51,0,0,0-1.36,0l-5.91,3.41c-.37.21-.37.57,0,.79l6,3.45a1.51,1.51,0,0,0,1.36,0l5.91-3.41C295.06,380.34,295.05,380,294.67,379.77Zm-27-15.58-5.95-3.44a1.51,1.51,0,0,0-1.36,0l-5.87,3.41c-.38.21-.37.56,0,.78l5.94,3.44a1.54,1.54,0,0,0,1.37,0l5.88-3.41C268.09,364.76,268.09,364.41,267.71,364.19Zm4.49-7.89-6-3.44a1.55,1.55,0,0,0-1.36,0L259,356.27c-.37.21-.37.56,0,.78l5.95,3.43a1.46,1.46,0,0,0,1.35,0l5.89-3.4C272.58,356.87,272.57,356.52,272.2,356.3Zm9,5.18-6-3.44a1.5,1.5,0,0,0-1.37,0l-5.88,3.4a.41.41,0,0,0,0,.78l5.95,3.44a1.47,1.47,0,0,0,1.37,0l5.89-3.4C281.56,362.05,281.55,361.7,281.17,361.48Zm-4.48,7.89-6-3.44a1.51,1.51,0,0,0-1.36,0l-5.88,3.4c-.38.22-.37.57,0,.79l6,3.44a1.45,1.45,0,0,0,1.36,0l5.89-3.4C277.07,369.94,277.06,369.59,276.69,369.37Zm13.48-2.71-6-3.44a1.51,1.51,0,0,0-1.36,0l-5.9,3.41c-.37.21-.37.57,0,.79l6,3.44a1.51,1.51,0,0,0,1.36,0l5.9-3.41C290.55,367.24,290.54,366.88,290.17,366.66Zm-4.5,7.91-6-3.45a1.48,1.48,0,0,0-1.36,0l-5.89,3.4a.42.42,0,0,0,0,.79l6,3.45a1.54,1.54,0,0,0,1.37,0l5.9-3.4A.42.42,0,0,0,285.67,374.57Zm13.5-2.71-6-3.45a1.54,1.54,0,0,0-1.37,0l-5.9,3.41c-.38.22-.37.57,0,.79l6,3.45a1.54,1.54,0,0,0,1.37,0l5.91-3.41C299.56,372.44,299.55,372.08,299.17,371.86Zm-15.11,12.2L246,362a1.46,1.46,0,0,0-1.35,0l-5.87,3.39c-.37.21-.37.56,0,.78l38.07,22.06a1.45,1.45,0,0,0,1.36,0l5.9-3.4A.41.41,0,0,0,284.06,384.06ZM258.76,359l-5.94-3.43a1.51,1.51,0,0,0-1.36,0L245.59,359a.42.42,0,0,0,0,.79l5.93,3.43a1.46,1.46,0,0,0,1.35,0l5.88-3.4C259.14,359.58,259.13,359.23,258.76,359Zm-8.94-5.17-5.93-3.42a1.48,1.48,0,0,0-1.36,0l-5.86,3.39a.42.42,0,0,0,0,.79L242.6,358a1.53,1.53,0,0,0,1.35,0l5.87-3.4A.42.42,0,0,0,249.82,353.84Zm4.47-7.87-5.94-3.42a1.46,1.46,0,0,0-1.35,0l-5.86,3.39a.42.42,0,0,0,0,.79l5.93,3.42a1.49,1.49,0,0,0,1.35,0l5.87-3.41C254.67,346.54,254.67,346.19,254.29,346Zm8.94,5.16-5.94-3.43a1.48,1.48,0,0,0-1.36,0l-5.87,3.4a.41.41,0,0,0,0,.78l5.94,3.43a1.46,1.46,0,0,0,1.35,0l5.88-3.4C263.62,351.7,263.61,351.35,263.23,351.13ZM243,360.26l-8.65-5a1.49,1.49,0,0,0-1.35,0l-5.86,3.4c-.37.21-.36.56,0,.78l8.64,5a1.46,1.46,0,0,0,1.35,0l5.86-3.39A.42.42,0,0,0,243,360.26Zm-2.07-11.57L235,345.27a1.49,1.49,0,0,0-1.35,0l-5.86,3.4a.42.42,0,0,0,0,.79l5.91,3.41a1.48,1.48,0,0,0,1.36,0l5.86-3.4C241.27,349.26,241.26,348.91,240.89,348.69Zm4.46-7.87-5.92-3.42a1.46,1.46,0,0,0-1.35,0l-5.86,3.4c-.37.21-.36.56,0,.78l5.92,3.42a1.46,1.46,0,0,0,1.35,0l5.86-3.4C245.74,341.39,245.73,341,245.35,340.82Zm-14,12.71-7.61-4.41a1.53,1.53,0,0,0-1.35,0l-5.85,3.39a.41.41,0,0,0,0,.78l7.6,4.41a1.51,1.51,0,0,0,1.36,0l5.85-3.39A.41.41,0,0,0,231.32,353.53Zm-10.59-6.14-5.9-3.41a1.46,1.46,0,0,0-1.35,0l-5.84,3.39a.41.41,0,0,0,0,.78l5.89,3.42a1.53,1.53,0,0,0,1.35,0l5.84-3.39A.42.42,0,0,0,220.73,347.39Zm-8.89-5.14-5.88-3.4a1.46,1.46,0,0,0-1.35,0l-5.83,3.38c-.37.22-.36.57,0,.79l5.88,3.41a1.53,1.53,0,0,0,1.35,0l5.83-3.39A.42.42,0,0,0,211.84,342.25ZM232,343.54l-17.1-9.88a1.46,1.46,0,0,0-1.35,0l-5.83,3.39c-.38.22-.38.57,0,.78l17.08,9.89a1.46,1.46,0,0,0,1.35,0l5.85-3.4A.41.41,0,0,0,232,343.54Zm4.46-7.87-12.57-7.24a1.46,1.46,0,0,0-1.35,0l-5.84,3.39a.41.41,0,0,0,0,.78l12.55,7.25a1.49,1.49,0,0,0,1.35,0l5.86-3.4A.42.42,0,0,0,236.44,335.67Zm11.89-10.82-9.18-5.28a1.46,1.46,0,0,0-1.35,0l-3.09,1.8a.42.42,0,0,0,0,.79l9.17,5.28a1.49,1.49,0,0,0,1.35,0l3.1-1.82C248.71,325.42,248.71,325.07,248.33,324.85Zm8.93,5.14-5.93-3.41a1.48,1.48,0,0,0-1.36,0l-3.09,1.81c-.38.21-.38.56,0,.78l5.92,3.41a1.51,1.51,0,0,0,1.36,0l3.1-1.81A.42.42,0,0,0,257.26,330Zm8.93,5.15-5.93-3.42a1.48,1.48,0,0,0-1.36,0l-3.11,1.81c-.37.21-.37.56,0,.78l5.93,3.42a1.48,1.48,0,0,0,1.36,0l3.11-1.81A.41.41,0,0,0,266.19,335.14Zm9,5.15-5.95-3.42a1.51,1.51,0,0,0-1.36,0l-3.12,1.82c-.37.21-.37.56,0,.78l5.94,3.43a1.48,1.48,0,0,0,1.36,0l3.12-1.81C275.53,340.86,275.52,340.51,275.15,340.29Zm9,5.17-6-3.43a1.48,1.48,0,0,0-1.36,0l-3.13,1.81a.41.41,0,0,0,0,.78l5.95,3.44a1.55,1.55,0,0,0,1.36,0l3.14-1.82C284.5,346,284.5,345.68,284.12,345.46Zm9,5.17-6-3.44a1.55,1.55,0,0,0-1.36,0L282.64,349c-.38.21-.37.56,0,.78l6,3.44a1.54,1.54,0,0,0,1.37,0l3.14-1.82C293.49,351.2,293.48,350.85,293.1,350.63Zm9,5.19-6-3.45a1.48,1.48,0,0,0-1.36,0l-3.15,1.81a.42.42,0,0,0,0,.79l6,3.44a1.5,1.5,0,0,0,1.37,0l3.15-1.82A.41.41,0,0,0,302.1,355.82Zm9,5.18-6-3.45a1.55,1.55,0,0,0-1.36,0l-3.15,1.82c-.38.21-.37.57,0,.79l6,3.45a1.51,1.51,0,0,0,1.36,0l3.16-1.82C311.5,361.58,311.49,361.22,311.11,361Zm9,5.2-6-3.45a1.48,1.48,0,0,0-1.36,0l-3.16,1.81c-.38.22-.37.57,0,.79l6,3.46a1.5,1.5,0,0,0,1.37,0l3.16-1.82C320.53,366.78,320.52,366.43,320.14,366.2Zm9.05,5.21-6-3.46a1.5,1.5,0,0,0-1.37,0l-3.17,1.81a.42.42,0,0,0,0,.79l6,3.46a1.47,1.47,0,0,0,1.37,0l3.18-1.82C329.58,372,329.57,371.64,329.19,371.41Zm9.06,5.22-6-3.46a1.47,1.47,0,0,0-1.37,0L327.68,375a.42.42,0,0,0,0,.79l6,3.46a1.5,1.5,0,0,0,1.38,0l3.18-1.82C338.64,377.21,338.63,376.85,338.25,376.63Zm9.07,5.23-6-3.47a1.5,1.5,0,0,0-1.38,0l-3.18,1.82c-.38.22-.38.57,0,.79l6,3.47a1.5,1.5,0,0,0,1.37,0l3.19-1.82C347.71,382.43,347.71,382.08,347.32,381.86Zm9.1,5.23-6-3.48a1.56,1.56,0,0,0-1.38,0l-3.19,1.82c-.38.22-.37.57,0,.79l6,3.48a1.56,1.56,0,0,0,1.38,0l3.2-1.83C356.8,387.67,356.8,387.31,356.42,387.09Zm9.1,5.25-6-3.49a1.58,1.58,0,0,0-1.39,0l-3.19,1.83c-.38.21-.38.57,0,.79l6.05,3.48a1.5,1.5,0,0,0,1.38,0l3.2-1.82C365.91,392.91,365.91,392.56,365.52,392.34ZM242.06,328.48l-9.18-5.29a1.46,1.46,0,0,0-1.35,0l-5.82,3.38,0,0a.41.41,0,0,0,0,.78l9.17,5.29a1.53,1.53,0,0,0,1.35,0l.3-.18,5.56-3.23C242.44,329,242.43,328.69,242.06,328.48Zm8.92,5.13-5.92-3.41a1.48,1.48,0,0,0-1.36,0l-5.53,3.21-.33.19a.41.41,0,0,0,0,.78l5.92,3.42a1.55,1.55,0,0,0,1.36,0l.43-.26,5.43-3.15C251.36,334.18,251.36,333.83,251,333.61Zm8.94,5.15L254,335.34a1.46,1.46,0,0,0-1.35,0l-5.41,3.13-.46.27a.41.41,0,0,0,0,.78L252.7,343a1.48,1.48,0,0,0,1.36,0l.57-.34,5.3-3.07A.41.41,0,0,0,259.92,338.76Zm8.95,5.15-5.94-3.42a1.48,1.48,0,0,0-1.36,0l-5.28,3.06-.6.34a.42.42,0,0,0,0,.79l5.94,3.43a1.55,1.55,0,0,0,1.36,0l.71-.42,5.17-3C269.26,344.49,269.26,344.13,268.87,343.91Zm9,5.17-6-3.43a1.48,1.48,0,0,0-1.36,0l-5.15,3-.74.43a.42.42,0,0,0,0,.79l6,3.43a1.48,1.48,0,0,0,1.36,0l.85-.49,5-2.92C278.23,349.65,278.22,349.3,277.85,349.08Zm9,5.17-6-3.44a1.55,1.55,0,0,0-1.36,0l-5,2.9-.87.51c-.38.22-.37.57,0,.79l6,3.43a1.54,1.54,0,0,0,1.37,0l1-.57,4.9-2.84A.42.42,0,0,0,286.83,354.25Zm9,5.19-6-3.45a1.5,1.5,0,0,0-1.37,0l-4.88,2.82-1,.59a.41.41,0,0,0,0,.78l6,3.45a1.57,1.57,0,0,0,1.37,0l1.13-.65,4.78-2.76A.41.41,0,0,0,295.83,359.44Zm9,5.18-6-3.44a1.51,1.51,0,0,0-1.36,0l-4.76,2.75-1.15.66c-.38.22-.37.57,0,.79l6,3.45a1.51,1.51,0,0,0,1.36,0l1.27-.73,4.65-2.69C305.23,365.2,305.22,364.85,304.84,364.62Zm9,5.2-6-3.45a1.48,1.48,0,0,0-1.36,0L301.88,369l-1.29.75c-.38.21-.37.57,0,.78l6,3.46a1.54,1.54,0,0,0,1.37,0l1.4-.82,4.52-2.6C314.26,370.4,314.25,370.05,313.87,369.82Zm9.05,5.21-6-3.46a1.5,1.5,0,0,0-1.37,0l-4.5,2.59-1.43.82a.42.42,0,0,0,0,.79l6,3.46a1.5,1.5,0,0,0,1.37,0l1.55-.89,4.38-2.52C323.31,375.61,323.3,375.25,322.92,375Zm9.06,5.22-6-3.46a1.5,1.5,0,0,0-1.38,0l-4.36,2.51-1.57.9a.42.42,0,0,0,0,.79l6,3.47a1.56,1.56,0,0,0,1.38,0l1.68-1L332,381A.42.42,0,0,0,332,380.25Zm9.07,5.23L335,382a1.47,1.47,0,0,0-1.37,0l-4.23,2.43-1.72,1c-.37.22-.37.57,0,.79l6,3.48a1.54,1.54,0,0,0,1.37,0l1.83-1.05,4.12-2.37C341.44,386.06,341.44,385.7,341.05,385.48Zm9.1,5.23-6-3.47a1.5,1.5,0,0,0-1.38,0l-4.1,2.35-1.85,1.06c-.38.22-.37.57,0,.79l6,3.48a1.53,1.53,0,0,0,1.38,0l2-1.13,4-2.29C350.54,391.29,350.53,390.94,350.15,390.71Zm9.1,5.25-6.05-3.49a1.53,1.53,0,0,0-1.38,0l-4,2.27-2,1.14c-.39.22-.38.57,0,.8l6.05,3.48a1.53,1.53,0,0,0,1.38,0l2.11-1.21,3.85-2.21C359.64,396.53,359.64,396.18,359.25,396Zm-9.19,5.26-11.66-6.73a1.54,1.54,0,0,0-1.37,0l-5.95,3.41a.42.42,0,0,0,0,.79l11.65,6.73a1.53,1.53,0,0,0,1.38,0l5.95-3.41C350.46,401.8,350.45,401.44,350.06,401.22Zm-9.17,5.25-16.07-9.29a1.56,1.56,0,0,0-1.38,0l-5.93,3.41a.42.42,0,0,0,0,.79l16.06,9.29a1.5,1.5,0,0,0,1.37,0l6-3.41C341.28,407.05,341.27,406.69,340.89,406.47Zm-11.82,8.2-6.5-3.76a1.53,1.53,0,0,0-1.38,0l-2,1.14a.42.42,0,0,0,0,.79l6.5,3.77a1.56,1.56,0,0,0,1.38,0l2-1.14C329.46,415.25,329.45,414.9,329.07,414.67Z"></path></g><path class="cls-16" d="M307.66,255.06c7.11,4.1,12.87,14,12.87,22.2,0,6.24-3.37,9.63-8.14,9v2.43c0,.26-.11.45-.3.49l-1.21.32c-.31.08-.38.54-.16,1l0,.08a1.29,1.29,0,0,1,.13.54c0,.34-.19.56-.5.49s-.63.38-.4,1l1.84,4.63a2.06,2.06,0,0,1-.07,2.08L310,301.2a2,2,0,0,0-.08,2.08l2,5a2.09,2.09,0,0,1,0,1.94l-.64.81a2.19,2.19,0,0,0,0,2.2l.52,1.18a2.12,2.12,0,0,1,.05,2.09l-1.06,1.37a2.28,2.28,0,0,0,.05,2.2l1.45,3.22a1.46,1.46,0,0,1,.13.54v.51a.52.52,0,0,1-.18.44l-3.42,2.53c-.49.36-1.27.05-1.89-.66a4.5,4.5,0,0,1-.47-.7l-.5-.95-1-1.84-1-1.85-.33-.62a6.65,6.65,0,0,1-.82-3v-37c-4.72-4.91-8-12.14-8-18.33C294.79,254.24,300.55,251,307.66,255.06Zm0,12.28c1.95,1.13,3.54.23,3.54-2a7.81,7.81,0,0,0-3.54-6.1c-2-1.13-3.53-.22-3.53,2A7.77,7.77,0,0,0,307.66,267.34Z"></path><polygon class="cls-17" points="303.98 282.41 303.98 321.31 304.95 323.17 305.93 325.01 305.93 283.54 303.98 282.41"></polygon><polygon class="cls-18" points="304.77 282.95 304.77 321.86 305.75 323.71 305.93 324.04 305.93 283.62 304.77 282.95"></polygon></g><circle class="cls-4" cx="564.46" cy="339.97" r="5.87"></circle><circle class="cls-5" cx="542.7" cy="334.69" r="5.87"></circle><circle class="cls-6" cx="522.65" cy="329.82" r="5.87"></circle><circle class="cls-7" cx="502.55" cy="325.04" r="5.87"></circle><circle class="cls-8" cx="481.09" cy="319.86" r="5.87"></circle><polygon class="cls-23" points="563 345.64 479.1 325.44 481.69 313.84 565.72 334.23 563 345.64"></polygon><circle class="cls-4" cx="712.98" cy="320.49" r="5.87"></circle><circle class="cls-5" cx="693.89" cy="332.21" r="5.87"></circle><circle class="cls-6" cx="676.31" cy="342.99" r="5.87"></circle><circle class="cls-7" cx="658.75" cy="353.89" r="5.87"></circle><circle class="cls-8" cx="639.95" cy="365.45" r="5.87"></circle><polygon class="cls-24" points="715.97 325.52 642.5 370.79 636.11 360.78 709.8 315.55 715.97 325.52"></polygon></g><g id="cloud"><path class="cls-25" d="M963.65,319.35c0,21.28-7.31,36-18.78,41.92l-50,34.36-6.32-8.08-2.19-2.8.87-1.09,2.53-3.1c0-.06,1.91-1.37,4.43-3.11-1.1-.55-2.24-1.14-3.35-1.8s-2.15-1.28-3.21-2l-4.35-2.52L659.09,241.74c-1.06-.52-2.14-1.09-3.21-1.72-27.94-16.13-50.67-59.19-51.08-96.57,0-.35,0-.7,0-1,0-.19,0-.37,0-.56a71.61,71.61,0,0,1,2.45-18.91c-5.47-2-13.3-4.89-13.4-4.89s45-31.48,49.68-34.22a2.11,2.11,0,0,1,.32-.18,4.23,4.23,0,0,1,.42-.25.2.2,0,0,1,.09-.06c8.93-5.08,20.57-4.57,33.28,2.78.63.36,1.25.74,1.87,1.12.38-8.19-34.75,0-32.48-6.1l51.21-34.86.06,0c10.09-6.26,23.43-5.91,38.05,2.53a86.59,86.59,0,0,1,19.52,15.87l19.79-11.95.32-.19a46.72,46.72,0,0,1,24.5-6.2h0a57.26,57.26,0,0,1,8.42.76c1.55.24,3.11.56,4.7.94a85.31,85.31,0,0,1,22.69,9.34c31.9,18.42,60,56.29,76.55,98.7,9.83,25.21,15.57,52,15.57,77.32a8.53,8.53,0,0,1,0,.88l.05.05C948.89,255,963.65,289.14,963.65,319.35Z"></path><path class="cls-16" d="M911.7,355.4c-.33,37.62-23.36,54.71-51.43,38.17-1.06-.62-2.12-1.3-3.17-2L629.75,257.62c-1-.53-2.12-1.11-3.18-1.73-28.07-16.54-50.56-60.46-50.23-98.07s23.36-54.71,51.43-38.18c.62.37,1.24.75,1.86,1.15,2.13-38.73,27-55.72,57.17-38a89.93,89.93,0,0,1,22.7,19.8c16.67-23.79,45.08-29.25,77.16-10.35,50.62,29.82,91.16,109,90.57,176.81,0,.3,0,.6,0,.89C897.49,290.84,912,325.16,911.7,355.4Z"></path><path class="cls-26" d="M789.17,93.79C748.67,156.1,698,232.08,666.4,279.21l-36.65-21.59c-1.06-.53-2.12-1.11-3.18-1.73-28.07-16.54-50.57-60.45-50.23-98.07s23.36-54.71,51.43-38.18q.93.56,1.86,1.14c2.13-38.72,27.06-55.71,57.17-38a90.3,90.3,0,0,1,22.7,19.8c16.66-23.8,45.09-29.24,77.16-10.36C787.5,92.75,788.34,93.27,789.17,93.79Z"></path></g><g id="lock"><path class="cls-27" d="M721.74,235.55,748,219.35h0c3-1.52,6.74-1.27,10.86,1.15l86,50.47c9.39,5.51,16.93,20.16,16.85,32.73l-.53,75.19c0,6.74-2.29,11.49-5.8,13.61l0,0c-.26.15-25.48,15.78-26.88,16.5,0,0-.09-.53-.09-.53s-7.24-11.5-17.8-28.59L752,345.5c-9.39-5.51-16.93-20.17-16.84-32.74l.38-54.81Z"></path><path class="cls-28" d="M732.22,357.16l86,50.48c9.39,5.51,17.07-.22,17.16-12.79l.52-75.18c.09-12.57-7.45-27.22-16.84-32.73l-86-50.48c-9.39-5.51-17.07.22-17.16,12.79l-.52,75.18C715.29,337,722.83,351.66,732.22,357.16Z"></path><path class="cls-29" d="M763.15,300.4c.06-8,5.75-11.21,12.71-7.13s12.56,13.9,12.5,21.92c0,5.37-2.61,8.56-6.39,8.87l-.21,30.47-12.6-7.4.21-30.47C765.62,311.94,763.12,305.77,763.15,300.4Z"></path><path class="cls-30" d="M810.34,264.67c.31-.17.66-.3,1-.45a20.72,20.72,0,0,1,17,.3c.17.09.36.16.52.25,5.08,3,5,7.77-.13,10.7-.15.08-.32.14-.46.22a20.77,20.77,0,0,1-17,.18c-.34-.16-.71-.3-1-.49C805.13,272.4,805.19,267.6,810.34,264.67Z"></path><path class="cls-30" d="M747.88,228.13c.19-.11.41-.18.6-.28a20.71,20.71,0,0,1,17-.06c.3.15.62.27.9.43,5.08,3,5,7.78-.13,10.7-.27.15-.57.26-.85.4a20.75,20.75,0,0,1-17-.18c-.21-.11-.45-.19-.65-.31C742.67,235.85,742.73,231.06,747.88,228.13Z"></path><path class="cls-31" d="M789.06,153.78c24.94,12.95,39.77,44.05,39.59,69.39l-.29,41.35-.07,11.17a20.77,20.77,0,0,1-17,.18l.09-11.65.35-51c.1-14.57-10.1-32.45-22.76-39.88s-23-1.6-23.11,13l-.29,41.49-.08,11.53a20.75,20.75,0,0,1-17-.18l.08-11.29.36-51.51C749,151,766.42,142,789.06,153.78Z"></path></g></svg> 